<svg id="Layer_1" data-name="Layer 1" xmlns="http://www.w3.org/2000/svg" viewBox="0 0 24 24"><defs><style>.cls-1{fill:#f93a7f;}</style></defs><title>icon</title><path class="cls-1" d="M14.6,8.73H9.4a.58.58,0,0,0-.59.58V14.1a.58.58,0,0,0,.59.59h4.13a.59.59,0,0,1,.42.17l.24.24a.58.58,0,0,0,1-.41V9.31A.58.58,0,0,0,14.6,8.73Zm-3.28,4.74H10.19a.34.34,0,0,1-.34-.34.34.34,0,0,1,.34-.34h1.13a.34.34,0,0,1,.34.34A.34.34,0,0,1,11.32,13.47ZM13.5,12H10.25a.34.34,0,1,1,0-.68H13.5a.34.34,0,0,1,0,.68Zm.06-1.52H10.31A.34.34,0,0,1,10,10.1a.34.34,0,0,1,.34-.34h3.25a.35.35,0,0,1,.34.34A.34.34,0,0,1,13.56,10.44Z"/></svg>