<svg id="Layer_1" data-name="Layer 1" xmlns="http://www.w3.org/2000/svg" viewBox="0 0 24 24"><defs><style>.cls-1{fill:#f93a7f;}</style></defs><title>icon</title><path class="cls-1" d="M12,14.25a2.25,2.25,0,1,1,1.41-4l-.27.23a.52.52,0,0,0,.26.9l1.24.18a.51.51,0,0,0,.58-.51V9.8a.52.52,0,0,0-.85-.39l-.18.16a3.27,3.27,0,1,0,.54,4.23A.51.51,0,0,0,14.4,13h0a.51.51,0,0,0-.5.22A2.25,2.25,0,0,1,12,14.25Z"/><path class="cls-1" d="M13.18,12.13h-.76a.18.18,0,0,1-.19-.18v-1.2a.36.36,0,0,0-.36-.36h0a.36.36,0,0,0-.36.36V12.5a.36.36,0,0,0,.36.36h1.32a.37.37,0,0,0,0-.73Z"/></svg>