<svg id="Layer_1" data-name="Layer 1" xmlns="http://www.w3.org/2000/svg" viewBox="0 0 24 24"><defs><style>.cls-1{fill:#e2e2e2;}</style></defs><title>icon shejek 14</title><circle class="cls-1" cx="4.46" cy="21" r="0.93"/><path class="cls-1" d="M23,19l.22-.05a.54.54,0,0,0,.35-.77,3.7,3.7,0,0,0-3.06-2,3.81,3.81,0,0,0,.62-1.6c-.08-1-2.8-3.43-3.66-4.18h.27a.73.73,0,0,0,.61-1.14A1.53,1.53,0,0,0,17,8.56h-.39V7.87a1.77,1.77,0,0,0-.52-1.26l-.47-.47v-.4a.38.38,0,0,0-.38-.38H15.2a.39.39,0,0,0-.38.38V7.05a.39.39,0,0,0,.38.38h.08a.38.38,0,0,0,.38-.38V6.68l.2.2a1.38,1.38,0,0,1,.41,1v.69h-.06a.91.91,0,0,0-.91.91v0l-.42.2L12.11,8.26,11.4,6.71c-.05-1.24-.74-2.55-.6-2.63a.67.67,0,0,1,.52,0c.18.07.28-.18.29-.31s.08-.15.13-.15.1-.16,0-.24a.25.25,0,0,0,.17-.07c.07-.07-.1-.22-.07-.25s.24.06.16-.24-.23-.47-.17-.57a1.43,1.43,0,0,0,.1-.34h.57a.1.1,0,0,0,.06-.18l-.7-.57A2.85,2.85,0,0,0,10.5.07,2.1,2.1,0,0,0,8.13,1a2.25,2.25,0,0,0,.12,2.42C7.84,5.26,6,7.07,6.07,8.07a1.47,1.47,0,0,0,.74,1.2,5.71,5.71,0,0,0-.38,2.87H3.3a.93.93,0,0,0-.37,1.78.23.23,0,0,1,0,.4A5,5,0,0,0,.23,18.75.22.22,0,0,0,.45,19h.2a.41.41,0,0,0-.09.26V20a.47.47,0,0,0,.47.47h.48a3,3,0,0,0-.05.52A3,3,0,0,0,3,23.63,2.94,2.94,0,0,0,4.46,24a3,3,0,0,0,2.87-2.18h2.2c.21,0,.8,0,1.54,0h2.66A5.44,5.44,0,0,0,17,20.36a.49.49,0,0,0,.24,0l.39-.09.32-.11a2.9,2.9,0,0,0-.14.84,3,3,0,0,0,3,3,2.94,2.94,0,0,0,1.42-.37A3,3,0,0,0,23,19ZM4.46,22.67A1.67,1.67,0,1,1,6.12,21,1.67,1.67,0,0,1,4.46,22.67ZM11,19.51a.23.23,0,0,1-.21-.15c-.19-.48-.76-2.06-.16-2.5a6.64,6.64,0,0,0,.81-.66,10.7,10.7,0,0,0,.69,2.89l.74,0,0,.34,0,.11Zm5.78-2.65C16,18,15.21,18.93,15,19.17a.67.67,0,0,1-.36.22A1.48,1.48,0,0,0,13.57,19s1.16-3.74,1.49-5,.67-1.7-.85-2.16a27.31,27.31,0,0,0-2.69-.72,1.51,1.51,0,0,1-1.2-1.39c0-.63,0-1.39,0-1.39l.95,1a32.9,32.9,0,0,0,3.42,1.38c.16-.07.17-.42.17-.42l.69-.3a.87.87,0,0,0,.32.22c.08.2,1.46,4.07,1.55,4.41C17.57,15.24,17.61,15.74,16.78,16.86Zm4,5.81a1.67,1.67,0,0,1-.68-3.19l.22.71a.93.93,0,0,0,.46,1.74.93.93,0,0,0,0-1.86h0l-.22-.72.22,0a1.67,1.67,0,0,1,0,3.34Z"/></svg>