<svg id="Layer_1" data-name="Layer 1" xmlns="http://www.w3.org/2000/svg" viewBox="0 0 24 24"><defs><style>.cls-1{fill:#f93a7f;}</style></defs><title>icon</title><rect class="cls-1" x="9.32" y="12.62" width="5.35" height="0.98"/><path class="cls-1" d="M9.64,11.52v1.61h4.72V11.52A2.36,2.36,0,0,0,12,9.16h0A2.36,2.36,0,0,0,9.64,11.52Z"/><path class="cls-1" d="M11.21,9.45v.69h1.58V9.45a.79.79,0,0,0-.79-.8h0A.79.79,0,0,0,11.21,9.45Z"/><path class="cls-1" d="M13.16,14.19H10.84A1.16,1.16,0,0,0,12,15.35h0A1.16,1.16,0,0,0,13.16,14.19Z"/></svg>