<svg id="Layer_1" data-name="Layer 1" xmlns="http://www.w3.org/2000/svg" viewBox="0 0 24 24"><defs><style>.cls-1{fill:#fff;}</style></defs><title>icon</title><rect class="cls-1" x="8.31" y="12.62" width="5.35" height="0.98"/><path class="cls-1" d="M8.63,11.52v1.61h4.72V11.52A2.36,2.36,0,0,0,11,9.16h0A2.36,2.36,0,0,0,8.63,11.52Z"/><path class="cls-1" d="M10.19,9.45v.69h1.59V9.45a.79.79,0,0,0-.79-.8h0A.8.8,0,0,0,10.19,9.45Z"/><path class="cls-1" d="M12.14,14.19H9.83A1.16,1.16,0,0,0,11,15.35h0A1.15,1.15,0,0,0,12.14,14.19Z"/></svg>