<svg id="Layer_1" data-name="Layer 1" xmlns="http://www.w3.org/2000/svg" viewBox="0 0 24 24"><defs><style>.cls-1{fill:#333;}.cls-2{fill:#f93a7f;}.cls-3{fill:#1a1a1a;}.cls-4{fill:#f66;}.cls-5{fill:#f2f2f2;}.cls-6{fill:#e23079;}.cls-7{opacity:0.3;}.cls-8{fill:#29abe2;}.cls-9{fill:#ffdaa4;}.cls-10{fill:#4ec2ea;}.cls-11{fill:#999;}.cls-12{fill:#ccc;}</style></defs><title>icon shejek</title><polygon class="cls-1" points="14.94 7.99 9.06 7.99 9.56 9.04 9.56 14.29 14.44 14.29 14.44 9.04 14.94 7.99"/><path class="cls-2" d="M12,22a2.74,2.74,0,0,0,2.74-2.74V14.77a3,3,0,0,0-1.06-2.68,1.71,1.71,0,0,1-.47-.74v0h-2.4v0a1.71,1.71,0,0,1-.47.74A3,3,0,0,0,9.3,14.77v4.49A2.74,2.74,0,0,0,12,22Z"/><rect class="cls-3" x="9.95" y="11.95" width="4.11" height="8.17" rx="1.98"/><path class="cls-4" d="M12.83,21.18v-.69H11.17v.69a.34.34,0,0,0,.33.34h1A.34.34,0,0,0,12.83,21.18Z"/><rect class="cls-5" x="11.02" y="20.49" width="1.96" height="0.26"/><path class="cls-6" d="M9.61,14.31A1.66,1.66,0,0,0,8.15,16v1.82a3.34,3.34,0,0,0,1.29,2.63.11.11,0,0,0,.17-.08Z"/><path class="cls-6" d="M14.39,14.31A1.66,1.66,0,0,1,15.85,16v1.82a3.34,3.34,0,0,1-1.29,2.63.11.11,0,0,1-.17-.08Z"/><path class="cls-3" d="M12,2a.52.52,0,0,0-.57.46v2a.58.58,0,0,0,1.14,0v-2A.52.52,0,0,0,12,2Z"/><path class="cls-6" d="M12,5.78h0a1.23,1.23,0,0,1-1.12-1.33V3.77a1.24,1.24,0,0,1,1-1.32h.14a1.24,1.24,0,0,1,1,1.32v.68A1.23,1.23,0,0,1,12,5.78Z"/><path class="cls-2" d="M15.14,7.82c.09,0,.17-.12.17-.27h0a3.31,3.31,0,1,0-6.62,0h0c0,.15.08.27.17.27A5,5,0,0,1,12,6.75,4.86,4.86,0,0,1,15.14,7.82Z"/><path class="cls-6" d="M15.24,8.21A.18.18,0,0,0,15.41,8h0c0-1.3-1.53-2.35-3.41-2.35S8.59,6.72,8.59,8h0a.18.18,0,0,0,.17.19A6.91,6.91,0,0,1,12,7.32,6.7,6.7,0,0,1,15.24,8.21Z"/><ellipse class="cls-3" cx="10.8" cy="9.79" rx="0.45" ry="0.55"/><ellipse class="cls-3" cx="13.38" cy="9.79" rx="0.45" ry="0.55"/><path class="cls-3" d="M16.76,8.22H15.11l-.06,0a6,6,0,0,0-3.11-.81,5.61,5.61,0,0,0-3,.8l-.06.05H7.24V7.75H8.73a6.05,6.05,0,0,1,3.21-.85,6.63,6.63,0,0,1,3.31.85h1.51Z"/><path class="cls-7" d="M13.33,7.35V7H10.67v.37a1.33,1.33,0,1,0,2.66,0Z"/><path class="cls-8" d="M12,9.76c0-.61-.6-.35-1.21-.35h0a1.11,1.11,0,0,0-1.11,1.11L9.52,13a1.26,1.26,0,0,0,1.27,1.11h0A1.35,1.35,0,0,0,12,13.35a1.35,1.35,0,0,0,1.21.77h0A1.26,1.26,0,0,0,14.48,13l-.16-2.49a1.11,1.11,0,0,0-1.11-1.11h0C12.6,9.41,12,9.15,12,9.76Z"/><path class="cls-9" d="M7.44,7.87c0-.16.07-.27.17-.32a.83.83,0,0,1,.71,0c.19.09,0,.66,0,.66h.17a.19.19,0,0,1-.19.17v.19H7.43l0-.36A.4.4,0,0,1,7.44,7.87Z"/><path class="cls-10" d="M8.32,8.46l0,2.38a.78.78,0,0,0,.43.7l2.28.8-.53,1.87-3-1.54a1.07,1.07,0,0,1-.36-.84l.07-3.37Z"/><path class="cls-9" d="M16.56,7.87c0-.16-.07-.27-.17-.32a.83.83,0,0,0-.71,0c-.19.09,0,.66,0,.66h-.17a.19.19,0,0,0,.19.17v.19h.85l0-.36A.4.4,0,0,0,16.56,7.87Z"/><path class="cls-10" d="M15.68,8.46l0,2.38a.78.78,0,0,1-.43.7l-2.28.8.53,1.87,3-1.54a1.07,1.07,0,0,0,.36-.84l-.07-3.37Z"/><path class="cls-5" d="M14.21,12.28,12.35,10.8,12,10.53l-.35.27L9.79,12.28a1.07,1.07,0,0,0-.52,1.15c.14.82,1.64,1,2.68,1h.1c1,0,2.54-.16,2.68-1A1.07,1.07,0,0,0,14.21,12.28Z"/><path class="cls-5" d="M14.57,11a4.75,4.75,0,0,0-2.47-.7h-.2a4.75,4.75,0,0,0-2.47.7c-.7.5-.12,2.25-.12,2.25a2.44,2.44,0,0,0,2.39.65l.23-1.27.07-.2.07.2.23,1.27a2.44,2.44,0,0,0,2.39-.65S15.27,11.54,14.57,11Z"/><path class="cls-11" d="M13.45,10.7a.74.74,0,0,0-.7-.53h-1.5a.74.74,0,0,0-.7.53l-.42,1.44a.73.73,0,0,0,.73.94L12,13H12l1.11.05a.73.73,0,0,0,.73-.94Z"/><ellipse class="cls-2" cx="12" cy="13.12" rx="2.16" ry="2.41"/><path class="cls-11" d="M8.54,7.7A.49.49,0,0,0,8,7.25a6.92,6.92,0,0,0-.87,0V7.18a7.17,7.17,0,0,1,.88,0,.58.58,0,0,1,.57.51Z"/><circle class="cls-11" cx="7.15" cy="7.23" r="0.15"/><path class="cls-11" d="M8.61,7.61a.1.1,0,0,0-.1.1v.55a.1.1,0,0,0,.1.11.11.11,0,0,0,.11-.11V7.71A.11.11,0,0,0,8.61,7.61Z"/><path class="cls-11" d="M15.39,7.61a.11.11,0,0,0-.11.1v.55a.11.11,0,0,0,.11.11.1.1,0,0,0,.1-.11V7.71A.1.1,0,0,0,15.39,7.61Z"/><path class="cls-11" d="M15.46,7.7a.49.49,0,0,1,.5-.45,6.92,6.92,0,0,1,.87,0V7.18a7.17,7.17,0,0,0-.88,0,.58.58,0,0,0-.57.51Z"/><circle class="cls-11" cx="16.85" cy="7.23" r="0.15"/><path class="cls-2" d="M12.71,8.23h2.4v-.7l-2-.69A.18.18,0,0,1,13,6.67V6.16a.41.41,0,0,0,0-.16H11a.41.41,0,0,0,0,.16v.51a.18.18,0,0,1-.18.17l-1.94.69v.7h2.4a1.33,1.33,0,0,0,.71.2h0A1.31,1.31,0,0,0,12.71,8.23Z"/><ellipse class="cls-12" cx="12" cy="7.29" rx="0.78" ry="0.75"/><rect class="cls-5" x="10.87" y="5.79" width="2.25" height="0.38" rx="0.09"/><path class="cls-11" d="M16.69,6.77a.08.08,0,0,0,0,0c0-.15-.34-.27-.77-.27s-.76.12-.76.27a.07.07,0,0,0,0,0Z"/><path class="cls-11" d="M14.39,7.45a.77.77,0,0,1,.76-.77h.79a0,0,0,1,1,0,.08h-.79a.69.69,0,0,0-.69.69,0,0,0,0,1,0,0S14.39,7.47,14.39,7.45Z"/><path class="cls-11" d="M8.81,6.77a.07.07,0,0,0,0,0c0-.15-.34-.27-.76-.27s-.77.12-.77.27a.08.08,0,0,0,0,0Z"/><path class="cls-11" d="M9.61,7.45a.77.77,0,0,0-.76-.77H8.06a0,0,0,1,0,0,.08h.79a.69.69,0,0,1,.69.69,0,0,0,0,0,0,0S9.61,7.47,9.61,7.45Z"/></svg>