<svg id="Layer_1" data-name="Layer 1" xmlns="http://www.w3.org/2000/svg" viewBox="0 0 24 24"><defs><style>.cls-1{fill:#f93a7f;}.cls-2{fill:#fff;}</style></defs><title>icon shejek</title><circle class="cls-1" cx="12" cy="12" r="12"/><path class="cls-2" d="M16.51,13.56l.21-.29.05-.07,0-.06a1.1,1.1,0,0,0,.09-.87h0a1,1,0,0,0-.29-.45L14.86,10.1h.51a.12.12,0,0,0,.11.09h.13a.11.11,0,0,0,.1-.09h0V9h0a.11.11,0,0,0-.1-.09h-.13a.12.12,0,0,0-.11.09h-.58a.45.45,0,0,0-.25.05l-.17-.37a.47.47,0,0,0-.43-.27h-.1c0-.21-.07-.37-.14-.37h0v.77h0c.07,0,.13-.14.14-.33h.1a.42.42,0,0,1,.36.22l.17.38a1.66,1.66,0,0,0-.5.54l-.05,0L12.29,9l-.39-.84c0-.68-.41-1.39-.33-1.43a.33.33,0,0,1,.29,0c.09,0,.15-.1.15-.18s.05-.08.07-.07.06-.09,0-.14a.1.1,0,0,0,.09,0s-.06-.12,0-.14.13,0,.09-.13-.13-.26-.09-.31a.8.8,0,0,0,.05-.19h.31s.08-.06,0-.09l-.39-.31a1.59,1.59,0,0,0-.72-.59A1.15,1.15,0,0,0,10.12,5a1.23,1.23,0,0,0,.06,1.32c-.22,1-1.25,2-1.18,2.53a.8.8,0,0,0,.4.65,5.71,5.71,0,0,0-.24,1.79h-2a.33.33,0,0,0-.33.33V12H6.74v.18h.74a1,1,0,0,0-.89.47H6.22v.08H6a.2.2,0,0,0-.2.2v.6a.2.2,0,0,0,.2.2h.26v.08h0a3.5,3.5,0,0,0-.87,2.35h.48l.26.17a1.58,1.58,0,0,0,3.14,0l.24.05a.87.87,0,0,0,.32.06h4.1a.88.88,0,0,0,.71-.36l.16-.22c.1,0,.32.07.69-.19a1.51,1.51,0,0,0-.08.48,1.58,1.58,0,1,0,2.53-1.26h.68A1.8,1.8,0,0,0,16.51,13.56ZM11.31,9l.52.56s1.89.69,2,.65.09-.23.09-.23l0,0,0,0h0l.35.41.95,2.26a1.09,1.09,0,0,1-.13,1.06l-1.44,1.7H13.6a.9.9,0,0,0-.52-.23s.63-2,.81-2.7.32-1.26-.51-1.51c-.48-.14-1-.29-1.46-.39a.84.84,0,0,1-.61-.82C11.29,9.46,11.31,9,11.31,9Zm-.1,5.35c0-.43.47-.85.73-1.15.09.9.08,2,.08,2h.6a1.48,1.48,0,0,0,0,.2H12.3A1,1,0,0,1,11.21,14.39Z"/></svg>