<svg id="Layer_1" data-name="Layer 1" xmlns="http://www.w3.org/2000/svg" viewBox="0 0 24 24"><defs><style>.cls-1{fill:#deb49f;}.cls-2{fill:#ebc4a8;}.cls-3{fill:#ffb0d0;}.cls-4{fill:#ff7bac;}.cls-5{fill:#f93a7f;}.cls-6{fill:#d32d71;}.cls-7{fill:#deb99f;}.cls-8{fill:#cca692;}</style></defs><title>icon shejek</title><path d="M11.52,16.14a1.65,1.65,0,0,1,.14,1.27c-.12.4-.31.55-.58.05a2,2,0,0,1,0-1.32S11.42,16,11.52,16.14Z"/><path class="cls-1" d="M11.6,16.77c0,.2-.11.35-.25.35s-.25-.15-.25-.35.11-.34.25-.34S11.6,16.58,11.6,16.77Z"/><path class="cls-2" d="M10.6,14.69s.44,1.93.53,2.1.47.2.47-.34c0-.12-.14-1.89-.14-1.89Z"/><path d="M12.48,16.14a1.65,1.65,0,0,0-.14,1.27c.12.4.31.55.58.05a2,2,0,0,0,0-1.32S12.58,16,12.48,16.14Z"/><path class="cls-1" d="M12.4,16.77c0,.2.11.35.25.35s.25-.15.25-.35-.11-.34-.25-.34S12.4,16.58,12.4,16.77Z"/><path class="cls-2" d="M13.4,14.69s-.44,1.93-.53,2.1-.45.39-.45-.15c0-.12.12-2.08.12-2.08Z"/><path class="cls-3" d="M14.69,9.71H9.31a10.34,10.34,0,0,1,.09,2c-.08.85-.87,1.7,0,3.54A2.36,2.36,0,0,0,11.76,17h.48a2.36,2.36,0,0,0,2.33-1.72c.9-1.84.1-2.69,0-3.54A10.34,10.34,0,0,1,14.69,9.71Z"/><path class="cls-2" d="M9.05,15.79c-.22-.48,0-.27-.2-.68a1.61,1.61,0,0,1-.15-.34l.18-1.49-1.14.22a14.15,14.15,0,0,0,.55,2C8.48,16,9.19,16.09,9.05,15.79Z"/><path class="cls-2" d="M15,15.79c.22-.48,0-.27.2-.68a1.61,1.61,0,0,0,.15-.34l-.18-1.49,1.14.22a14.15,14.15,0,0,1-.55,2C15.52,16,14.81,16.09,15,15.79Z"/><path class="cls-4" d="M16,10.36a4,4,0,0,0-2.44-1.48A8.57,8.57,0,0,0,12,8.71a8.57,8.57,0,0,0-1.56.17A4,4,0,0,0,8,10.36a4.35,4.35,0,0,0-.36,2.5A4.18,4.18,0,0,0,8,14.76l.77,0,.2-2,.23.12a3.87,3.87,0,0,0,2,1.86h1.46a3.87,3.87,0,0,0,2-1.86L15,12.7l.2,2,.77,0a4.18,4.18,0,0,0,.39-1.9A4.35,4.35,0,0,0,16,10.36Z"/><path class="cls-5" d="M13.34,8.5H10.66A1.24,1.24,0,0,0,9.42,9.85l0,.44a4.44,4.44,0,0,0,1.23,2.76,1.92,1.92,0,0,0,1.32.68,2,2,0,0,0,1.32-.67,4.37,4.37,0,0,0,1.22-2.76l0-.45A1.24,1.24,0,0,0,13.34,8.5Z"/><path class="cls-6" d="M12,6.79c-2.53,0-2.81,2.91-1.78,4.12.23.85.69,1.74,1.61,1.89.09.13.2.23.29.23s.2-.1.29-.23c1-.17,1.43-1.17,1.64-2.08h0C14.77,9.43,14.52,6.79,12,6.79Z"/><ellipse class="cls-2" cx="12" cy="10.08" rx="2.02" ry="2.16"/><path class="cls-5" d="M10.66,11.7a4.58,4.58,0,0,1-.16-.86c0-.13-.2-1.48-.2-1.48s-.36-1.49-.51-.26A3.13,3.13,0,0,0,10.66,11.7Z"/><path class="cls-5" d="M13.34,11.7a4.58,4.58,0,0,0,.16-.86c0-.13.2-1.48.2-1.48s.36-1.49.51-.26A3.13,3.13,0,0,1,13.34,11.7Z"/><path class="cls-5" d="M14,10.15a2.17,2.17,0,0,1-1.87.95,3,3,0,0,1-1.93-.71C9.13,9.22,9.39,6.22,12,6.22S14.78,8.86,14,10.15Z"/><path class="cls-7" d="M13.06,11.54c0,.09-.1.2-.3.26a.41.41,0,0,1-.44-.13c0-.09.13-.12.33-.17S13,11.46,13.06,11.54Z"/><path class="cls-7" d="M10.94,11.54c0,.09.11.2.31.26a.41.41,0,0,0,.44-.13c0-.09-.13-.12-.33-.17S11,11.46,10.94,11.54Z"/><path class="cls-8" d="M13.21,11.34l-.08.06-.09.06-.22.06-.12,0h-.25l-.12,0-.24,0,.24,0,.43-.08.11,0h.34Zm0,0-.2.08H12.9l-.11,0-.43.08v-.08h.3l.11,0a.66.66,0,0,0,.2-.06Z"/><path class="cls-8" d="M10.79,11.34l.23,0a.66.66,0,0,0,.2.06l.11,0h.3v.08l-.43-.08-.11,0H11Zm0,0h.34l.11,0,.43.08.24,0-.24,0-.12,0H11.3l-.12,0L11,11.46l-.09-.06Z"/><path class="cls-2" d="M12.43,11.87c0,.2-.26.59-.43.59s-.43-.39-.43-.59.26-.15.43-.15S12.43,11.66,12.43,11.87Z"/></svg>